<svg xmlns="http://www.w3.org/2000/svg" viewBox="0 0 17.75 10.06"><defs><style>.cls-1{fill:#3f51b5;}</style></defs><title>Asset 7</title><g id="Layer_2" data-name="Layer 2"><g id="Layer_1-2" data-name="Layer 1"><path class="cls-1" d="M.43,3.43l.19,0H.74c.16,0,.26-.13.28-.39S1,2.5,1,1.8A.32.32,0,0,0,1,1.58a.35.35,0,0,0-.24-.06H.52a.23.23,0,0,1-.16-.06A.18.18,0,0,1,.3,1.34a.26.26,0,0,1,.1-.19A.78.78,0,0,1,.66,1,4.53,4.53,0,0,1,2.42.64.86.86,0,0,1,2.79.7a.2.2,0,0,1,.12.19.21.21,0,0,1,0,.12.49.49,0,0,1-.15.09.31.31,0,0,0-.21.19,8,8,0,0,0,0,.9c0,.52,0,.8,0,.84s0,.09,0,.15a.29.29,0,0,0,.13.22A1,1,0,0,0,3,3.47c.18,0,.27.08.27.22s-.13.25-.39.29a5.8,5.8,0,0,1-1.11.1,5.33,5.33,0,0,1-.71,0A3.15,3.15,0,0,1,.4,3.89C.25,3.84.18,3.76.18,3.65A.18.18,0,0,1,.25,3.5.24.24,0,0,1,.43,3.43Z"/><path class="cls-1" d="M5.82,4h-2c-.18,0-.26,0-.26-.15a.24.24,0,0,1,0-.14L4,3.35a4.42,4.42,0,0,0,.84-1A.84.84,0,0,0,5,2a.36.36,0,0,0-.08-.24.36.36,0,0,0-.23-.08.58.58,0,0,0-.21,0l-.31.24A.24.24,0,0,1,4,2a.38.38,0,0,1-.25-.11.31.31,0,0,1-.12-.23.45.45,0,0,1,.11-.26A1.24,1.24,0,0,1,4,1.09,2.36,2.36,0,0,1,5.37.64a1.91,1.91,0,0,1,1,.22.78.78,0,0,1,.28.29.76.76,0,0,1,.1.39A1.58,1.58,0,0,1,6,2.65c-.16.14-.25.25-.25.32a.19.19,0,0,0,.08.14A.27.27,0,0,0,6,3.16.59.59,0,0,0,6.48,3l.14-.12.09,0c.17,0,.26.15.26.44a1.42,1.42,0,0,1-.08.45,1.49,1.49,0,0,1-.23.39.42.42,0,0,1-.33.17.21.21,0,0,1-.12,0,.57.57,0,0,1-.1-.11A.29.29,0,0,0,6,4Z"/><path class="cls-1" d="M8.65.64a2.29,2.29,0,0,1,1,.21.56.56,0,0,1,.27.23.57.57,0,0,1,.11.33A.74.74,0,0,1,9.69,2q-.09.07-.09.12c0,.05.06.09.17.11a.84.84,0,0,1,.79.88,1.28,1.28,0,0,1-.32.84,1.76,1.76,0,0,1-.9.54,3.5,3.5,0,0,1-.94.13,2.85,2.85,0,0,1-1-.17c-.19-.07-.28-.17-.28-.31a.26.26,0,0,1,.1-.21.29.29,0,0,1,.22-.09,2.83,2.83,0,0,1,.39.08l.31,0a.89.89,0,0,0,.56-.16.51.51,0,0,0,.22-.39A.44.44,0,0,0,8.72,3a.7.7,0,0,0-.44-.13,1,1,0,0,0-.3,0L7.87,3s-.11,0-.16-.15a.75.75,0,0,1-.08-.31.1.1,0,0,1,0-.09,1.07,1.07,0,0,1,.24-.1.82.82,0,0,0,.35-.23.38.38,0,0,0,.13-.28.36.36,0,0,0-.13-.29A.45.45,0,0,0,8,1.39a.53.53,0,0,0-.19,0l-.29.14-.1,0s-.09,0-.14-.1a.43.43,0,0,1-.06-.22c0-.13.12-.26.35-.37A1.83,1.83,0,0,1,8.05.71,2.52,2.52,0,0,1,8.65.64Z"/><path class="cls-1" d="M11.61,2.7a.68.68,0,0,1,.48.19.66.66,0,0,1,.21.51.63.63,0,0,1-.21.48.69.69,0,0,1-1,0,.66.66,0,0,1-.2-.49.67.67,0,0,1,.2-.5A.69.69,0,0,1,11.61,2.7Z"/><path class="cls-1" d="M14.24,1.28V3a1,1,0,0,0,0,.29.39.39,0,0,0,.15.17.69.69,0,0,1,.12.11.21.21,0,0,1,0,.12c0,.25-.32.38-1,.38A3.44,3.44,0,0,1,12.81,4a.34.34,0,0,1-.17-.11.25.25,0,0,1-.06-.16.23.23,0,0,1,0-.13,1.5,1.5,0,0,1,.16-.14.34.34,0,0,0,.13-.22,1.72,1.72,0,0,0,0-.45c0-.07,0-.19,0-.36s0-.28,0-.31-.07-.14-.17-.19a.25.25,0,0,1-.18-.23c0-.12.08-.22.24-.28a6.41,6.41,0,0,1,.7-.21,2.74,2.74,0,0,1,.58-.09C14.19,1.1,14.24,1.16,14.24,1.28ZM13.66,0a.71.71,0,0,1,.41.1.27.27,0,0,1,.15.25A.41.41,0,0,1,14,.71a1.66,1.66,0,0,1-.86.21.57.57,0,0,1-.34-.09.31.31,0,0,1-.17-.29q0-.26.36-.39A1.78,1.78,0,0,1,13.66,0Z"/><path class="cls-1" d="M17.46,2.69H16.08c-.06,0-.09,0-.09.08a.46.46,0,0,0,.21.35.66.66,0,0,0,.44.17,1.32,1.32,0,0,0,.32,0,1.46,1.46,0,0,0,.28-.13A.27.27,0,0,1,17.4,3a.2.2,0,0,1,.15.09.37.37,0,0,1,.07.19.55.55,0,0,1-.26.41,1.79,1.79,0,0,1-1.08.35,1.52,1.52,0,0,1-1-.36,1.34,1.34,0,0,1-.33-.42A1.46,1.46,0,0,1,15,1.71a1.57,1.57,0,0,1,.66-.5,1.53,1.53,0,0,1,.64-.13,1.45,1.45,0,0,1,.95.32,1.26,1.26,0,0,1,.32.37,1,1,0,0,1,.14.48.57.57,0,0,1-.08.31A.25.25,0,0,1,17.46,2.69Zm-1.3-.55h.3c.12,0,.18-.06.18-.17a.36.36,0,0,0-.09-.26.29.29,0,0,0-.23-.1.29.29,0,0,0-.26.13A.4.4,0,0,0,16,2c0,.06,0,.1,0,.12A.21.21,0,0,0,16.16,2.14Z"/><path class="cls-1" d="M1.49,6.1a.48.48,0,0,1,.22,0s0,.07,0,.15,0,.11.08.11L2,6.28a.94.94,0,0,1,.32-.14,1.23,1.23,0,0,1,.36-.06.94.94,0,0,1,.66.26,1.37,1.37,0,0,1,.35.49,1.84,1.84,0,0,1,.12.66,1.63,1.63,0,0,1-.49,1.22,1.27,1.27,0,0,1-.88.37A1.26,1.26,0,0,1,2,9l-.08,0c-.06,0-.09.06-.09.17a.38.38,0,0,0,.15.34.6.6,0,0,1,.17.13.16.16,0,0,1,0,.11.28.28,0,0,1-.19.27,1.37,1.37,0,0,1-.56.1A2.33,2.33,0,0,1,.27,9.8.36.36,0,0,1,0,9.48a.23.23,0,0,1,0-.13.54.54,0,0,1,.15-.1A.3.3,0,0,0,.39,9c0-.12,0-.48,0-1.06a5.22,5.22,0,0,0,0-.81l0,0-.15,0A.24.24,0,0,1,.06,7,.23.23,0,0,1,0,6.81.32.32,0,0,1,.08,6.6a.84.84,0,0,1,.27-.17A3,3,0,0,1,1.49,6.1Zm.29,1.1L1.73,8v.1a.17.17,0,0,0,.08.14A.33.33,0,0,0,2,8.31c.27,0,.41-.22.41-.67A.86.86,0,0,0,2.26,7,.33.33,0,0,0,2,6.93C1.87,6.93,1.79,7,1.78,7.2Z"/><path class="cls-1" d="M5.67,6.28V8a1,1,0,0,0,0,.29.47.47,0,0,0,.15.17A.69.69,0,0,1,6,8.56a.21.21,0,0,1,0,.12c0,.25-.32.38-1,.38A3.44,3.44,0,0,1,4.24,9a.34.34,0,0,1-.17-.11A.25.25,0,0,1,4,8.71a.23.23,0,0,1,0-.13,1.5,1.5,0,0,1,.16-.14.34.34,0,0,0,.13-.22,1.72,1.72,0,0,0,0-.45c0-.07,0-.19,0-.36s0-.28,0-.31S4.27,7,4.17,6.91A.25.25,0,0,1,4,6.68c0-.12.08-.22.24-.28a6.41,6.41,0,0,1,.7-.21,2.74,2.74,0,0,1,.58-.09C5.62,6.1,5.67,6.16,5.67,6.28ZM5.09,5a.71.71,0,0,1,.41.1.27.27,0,0,1,.15.25.41.41,0,0,1-.23.36,1.66,1.66,0,0,1-.86.21.57.57,0,0,1-.34-.09.32.32,0,0,1-.17-.29q0-.25.36-.39A1.78,1.78,0,0,1,5.09,5Z"/><path class="cls-1" d="M7.68,6.15H8.8a.23.23,0,0,1,.12.06.17.17,0,0,1,0,.13.68.68,0,0,1-.09.28L8.09,8A.6.6,0,0,0,8,8.25c0,.09.06.14.2.14a.43.43,0,0,0,.24-.06.54.54,0,0,0,.17-.21,1,1,0,0,1,.11-.18.16.16,0,0,1,.11-.05A.3.3,0,0,1,9,8a.46.46,0,0,1,.08.27.87.87,0,0,1-.1.39A1.25,1.25,0,0,1,8.77,9a.33.33,0,0,1-.22.1l-.11,0A.9.9,0,0,0,8.1,9H6.56c-.26,0-.39-.08-.39-.23a.22.22,0,0,1,0-.1l.21-.35.67-1.08a1.22,1.22,0,0,0,.19-.38c0-.07-.09-.11-.25-.11a.4.4,0,0,0-.2,0A1,1,0,0,0,6.66,7a1,1,0,0,1-.15.21.18.18,0,0,1-.13,0,.23.23,0,0,1-.19-.09.33.33,0,0,1-.08-.22,1.11,1.11,0,0,1,.18-.57c.12-.19.22-.29.33-.29l.09,0A.78.78,0,0,0,7,6.13C7,6.14,7.27,6.15,7.68,6.15Z"/><path class="cls-1" d="M10.77,6.15h1.12a.2.2,0,0,1,.11.06.17.17,0,0,1,.05.13.59.59,0,0,1-.1.28L11.18,8a.52.52,0,0,0-.1.24c0,.09.07.14.21.14a.43.43,0,0,0,.24-.06.64.64,0,0,0,.17-.21.63.63,0,0,1,.11-.18.14.14,0,0,1,.1-.05.27.27,0,0,1,.21.1.4.4,0,0,1,.09.27,1,1,0,0,1-.1.39,1.1,1.1,0,0,1-.26.34.29.29,0,0,1-.21.1l-.12,0A.86.86,0,0,0,11.18,9H9.65c-.26,0-.39-.08-.39-.23a.22.22,0,0,1,0-.1l.2-.35.67-1.08a1,1,0,0,0,.19-.38c0-.07-.08-.11-.25-.11a.4.4,0,0,0-.2,0A1,1,0,0,0,9.74,7a1,1,0,0,1-.14.21.21.21,0,0,1-.14,0,.23.23,0,0,1-.19-.09.32.32,0,0,1-.07-.22,1.11,1.11,0,0,1,.18-.57c.11-.19.22-.29.32-.29l.1,0a.74.74,0,0,0,.25.06C10.12,6.14,10.35,6.15,10.77,6.15Z"/><path class="cls-1" d="M14,6.08a1.35,1.35,0,0,1,.86.26.69.69,0,0,1,.26.31,1.28,1.28,0,0,1,.08.49v.44a1.43,1.43,0,0,0,.07.58.23.23,0,0,0,.06.09l.12,0a.11.11,0,0,1,.1.12.46.46,0,0,1-.12.29.81.81,0,0,1-.29.26.87.87,0,0,1-.46.13.62.62,0,0,1-.49-.21s-.07-.08-.11-.08a.33.33,0,0,0-.15.07,1.08,1.08,0,0,1-.67.22,1.06,1.06,0,0,1-.62-.17.76.76,0,0,1-.25-.28.77.77,0,0,1-.09-.36.69.69,0,0,1,.25-.54,1.58,1.58,0,0,1,1.15-.37.42.42,0,0,0,.21,0s0-.07,0-.15a1.21,1.21,0,0,0-.06-.45.2.2,0,0,0-.21-.14.24.24,0,0,0-.16,0,1.19,1.19,0,0,0-.17.19.69.69,0,0,1-.54.37.32.32,0,0,1-.24-.08.29.29,0,0,1-.09-.22.45.45,0,0,1,.11-.28,1,1,0,0,1,.31-.25A2.29,2.29,0,0,1,14,6.08Zm-.2,1.69a.29.29,0,0,0-.22.11.38.38,0,0,0,0,.48.2.2,0,0,0,.18.09c.15,0,.23-.14.23-.4a.54.54,0,0,0,0-.22A.2.2,0,0,0,13.83,7.77Z"/></g></g></svg>